<svg width="557" height="240" viewBox="0 0 557 240" fill="none" xmlns="http://www.w3.org/2000/svg">
<path d="M429.208 34.4277C340.969 -13.0301 171.295 -5.00119 84.2005 36.5268C44.5355 55.4401 -28.6055 110.242 15.9011 161.981C23.751 171.108 33.2928 178.521 43.165 184.937C151.813 255.537 303.348 248.347 419.951 206.103C437.342 199.803 454.454 192.324 470.198 182.159C481.973 174.556 493.357 165.132 502.526 154.136C529.368 121.942 522.357 89.544 493.477 62.2511C459.993 30.607 414.204 20.8007 371 15.4302C333.22 10.7341 295.488 9.83236 257.529 11.749C186.341 15.3429 104.302 21.0615 44.5964 64.3247C18.5186 83.2215 -9.49871 123.601 12.8547 156.282C37.0775 191.696 94.1921 203.163 132.608 210.636C236.242 230.796 400.219 220.8 494.617 167.895C504.796 162.19 515.108 156.874 524.215 149.371C531.41 143.443 538.299 136.684 544.276 129.369C586.628 77.5275 492.12 44.932 458.79 39.3343C353.938 21.7249 198.75 -3.68737 102.187 43.1571" stroke="#232323" stroke-width="3" stroke-miterlimit="1.5" stroke-linecap="round" stroke-linejoin="round"/>
</svg>
